<svg width="232" height="36" viewBox="0 0 232 36" fill="none" xmlns="http://www.w3.org/2000/svg">
<path d="M69.2 14.1C66.2 14.1 64.8 16.3 64.8 18.4C64.8 20.5 66.1 22.7 69.2 22.7C70.3 22.7 71.5 22.2 72.4 21.4L73.7 22.7C72.5 23.9 70.9 24.4 69.2 24.4C64.9 24.4 62.9 21.5 62.9 18.4C62.9 15.3 64.9 12.3 69.2 12.3C70.8 12.3 72.3 12.9 73.6 14.1L72.3 15.3C71.4 14.4 70.3 14.1 69.2 14.1Z" fill="#2E39BF"/>
<path d="M74.8 24.1V12.4H76.7V22.4H83V24.1H74.8Z" fill="#2E39BF"/>
<path d="M90.3 23.5C88.4873 23.5 87.2117 22.8455 86.3814 21.923C85.5367 20.9844 85.1 19.7079 85.1 18.4C85.1 15.3069 87.2872 13.2 90.3 13.2C92.1221 13.2 93.3941 13.8361 94.2185 14.7521C95.0566 15.6834 95.5 16.9808 95.5 18.4C95.5 19.7629 95.0604 21.0354 94.2218 21.9568C93.3965 22.8636 92.1224 23.5 90.3 23.5Z" stroke="#2E39BF" stroke-width="1.8"/>
<path d="M102.6 24.4C99.9 24.3 97.7 22.7 97.7 19.3V12.5H99.6V19.3C99.6 21.4 100.9 22.6 102.6 22.6C104.5 22.7 105.9 21.5 105.9 19.3V12.5H107.8V19.3C107.8 22.8 105.5 24.5 102.6 24.4Z" fill="#2E39BF"/>
<path d="M114.1 23.2H114.092H114.084H114.075H114.067H114.059H114.051H114.042H114.034H114.026H114.018H114.009H114.001H113.993H113.984H113.976H113.968H113.96H113.951H113.943H113.935H113.926H113.918H113.91H113.901H113.893H113.884H113.876H113.868H113.859H113.851H113.843H113.834H113.826H113.817H113.809H113.8H113.792H113.784H113.775H113.767H113.758H113.75H113.741H113.733H113.724H113.716H113.707H113.699H113.69H113.682H113.673H113.665H113.656H113.648H113.639H113.631H113.622H113.614H113.605H113.596H113.588H113.579H113.571H113.562H113.553H113.545H113.536H113.528H113.519H113.51H113.502H113.493H113.485H113.476H113.467H113.459H113.45H113.441H113.433H113.424H113.415H113.407H113.398H113.389H113.381H113.372H113.363H113.355H113.346H113.337H113.328H113.32H113.311H113.302H113.294H113.285H113.276H113.267H113.259H113.25H113.241H113.232H113.224H113.215H113.206H113.197H113.188H113.18H113.171H113.162H113.153H113.144H113.136H113.127H113.118H113.109H113.1H113.092H113.083H113.074H113.065H113.056H113.047H113.039H113.03H113.021H113.012H113.003H112.994H112.985H112.976H112.968H112.959H112.95H112.941H112.932H112.923H112.914H112.905H112.897H112.888H112.879H112.87H112.861H112.852H112.843H112.834H112.825H112.816H112.807H112.798H112.789H112.781H112.772H112.763H112.754H112.745H112.736H112.727H112.718H112.709H112.7H112.691H112.682H112.673H112.664H112.655H112.646H112.637H112.628H112.619H112.61H112.601H112.592H112.583H112.574H112.565H112.556H112.547H112.538H112.529H112.52H112.511H112.502H112.493H112.484H112.475H112.466H112.457H112.448H112.439H112.43H112.421H112.412H112.403H112.394H112.385H112.376H112.367H112.358H112.349H112.34H112.331H112.322H112.313H112.304H112.294H112.285H112.276H112.267H112.258H112.249H112.24H112.231H112.222H112.213H112.204H112.195H112.186H112.177H112.168H112.159H112.15H112.14H112.131H112.122H112.113H112.104H112.095H112.086H112.077H112.068H112.059H112.05H112.041H112.032H112.023H112.013H112.004H111.995H111.986H111.977H111.968H111.959H111.95H111.941H111.932H111.923H111.914H111.904H111.895H111.886H111.877H111.868H111.859H111.85H111.841H111.832H111.823H111.814H111.805H111.795H111.786H111.777H111.768H111.759H111.75H111.741H111.732H111.723H111.714H111.705H111.696H111.687H111.677H111.668H111.659H111.65H111.641H111.632H111.623H111.614H111.605H111.596H111.587H111.578H111.569H111.559H111.55H111.541H111.532H111.523H111.514H111.505H111.496H111.487H111.478H111.469H111.46H111.451H111.442H111.433H111.424H111.415H111.405H111.396H111.387H111.378H111.369H111.36H111.351H111.342H111.333H111.324H111.315H111.306H111.297H111.288H111.279H111.27H111.261H111.252H111.243H111.234H111.225H111.216H111.207H111.198H111.189H111.18H111.171H111.162H111.153H111.144H111.135H111.126H111.117H111.108H111.099H111.09H111.081H111.072H111.063H111.054H111.045H111.036H111.027H111.018H111.009H111H110.991H110.982H110.973H110.964H110.955H110.946H110.937H110.928H110.919H110.91H110.902H110.893H110.884H110.875H110.866H110.857H110.848H110.839H110.83H110.821H110.812H110.803H110.795H110.786H110.777H110.768H110.759H110.75H110.741H110.732H110.723H110.715H110.706H110.697H110.688H110.679H110.67H110.661H110.653H110.644H110.635H110.626H110.617H110.608H110.6H110.591H110.582H110.573H110.564H110.556H110.547H110.538H110.529H110.52H110.512H110.503H110.5V13.3H114.1C115.919 13.3 117.144 13.9342 117.933 14.8047C118.737 15.6903 119.153 16.8927 119.2 18.1161C119.197 19.4298 118.778 20.7007 117.961 21.6313C117.157 22.547 115.911 23.2 114.1 23.2Z" stroke="#2E39BF" stroke-width="1.8"/>
<path d="M134 24.2H132.3L130.7 20L129.4 16.1L128.1 20.1L126.6 24.2H124.9L120.6 12.5H122.7L125.7 21.5L128.8 12.5H130L133.2 21.5L136.2 12.5H138.3L134 24.2Z" fill="#2E39BF"/>
<path d="M148.611 21.9908L149.204 23.3H149.187L148.611 21.9908ZM144.72 13.4L148.072 20.8H147.5H141H140.428L143.78 13.4H144.72ZM139.296 23.3L139.889 21.9908L139.313 23.3H139.296Z" stroke="#2E39BF" stroke-width="1.8"/>
<path d="M155.9 19.4V24.1H154V19.4L149.4 12.5V12.4H151.7L154.9 17.6L158.3 12.4H160.6V12.5L155.9 19.4Z" fill="#2E39BF"/>
<path d="M166.3 13.8C164.7 13.8 163.6 14.4 163.6 15.6C163.6 16.7 164.9 17 166.5 17.3C168.9 17.6 171.3 18.3 171.3 20.9C171.3 23.5 168.9 24.5 166.3 24.5C164 24.5 162.3 23.8 161.2 21.8L162.6 20.8C163.4 22.2 164.9 22.7 166.3 22.7C167.7 22.7 169.3 22.2 169.3 20.8C169.3 19.5 167.9 19.1 166.2 18.9C163.8 18.6 161.6 18 161.6 15.5C161.6 13.1 164 12.2 166.2 12.2C167.9 12.2 169.6 12.6 170.6 14.2L169.1 15.2C168.7 14.3 167.6 13.8 166.3 13.8Z" fill="#2E39BF"/>
<path d="M39.6 27.2C32.8 27.2 27.4 21.8 27.4 15.2C27.4 8.59995 32.9 3.19995 39.6 3.19995C46.4 3.19995 51.8 8.59995 51.8 15.2C51.8 21.8 46.3 27.2 39.6 27.2Z" fill="#2E39BF"/>
<path d="M48.5 33.3C42.6 33.3 37.9 28.6 37.9 22.8C37.9 17 42.7 12.3 48.5 12.3C54.4 12.3 59.1 17 59.1 22.8C59.2 28.7 54.4 33.3 48.5 33.3Z" fill="#2E39BF"/>
<path d="M30.7 33.3C24.8 33.3 20.1 28.6 20.1 22.8C20.1 17 24.9 12.3 30.7 12.3C36.6 12.3 41.3 17 41.3 22.8C41.4 28.7 36.6 33.3 30.7 33.3Z" fill="#2E39BF"/>
<path d="M30.7 33.4V25H48.5V33.4H30.7Z" fill="#2E39BF"/>
<path d="M15.7 26.8H5.70002C5.20002 26.8 4.90002 26.5 4.90002 26V24.9C4.90002 24.5 5.20002 24.1 5.70002 24.1H15.7C16.2 24.1 16.5 24.4 16.5 24.9V26C16.5 26.4 16.2 26.8 15.7 26.8Z" fill="#2E39BF"/>
<path d="M29 27H18.7C18.2 27 17.9 26.7 17.9 26.2V25C17.9 24.5 18.2 24.2 18.7 24.2H29C29.5 24.2 29.8 24.5 29.8 25V26.2C29.8 26.6 29.4 27 29 27Z" fill="#2E39BF"/>
<path d="M40 33.4H11.4C10.6 33.4 10 32.8 10 32C10 31.2 10.7 30.6 11.4 30.6H40C40.8 30.6 41.4 31.2 41.4 32C41.4 32.7 40.8 33.4 40 33.4Z" fill="#2E39BF"/>
<path d="M31.2 20.6H2.59995C1.79995 20.6 1.19995 20.0001 1.19995 19.2001C1.19995 18.4001 1.89995 17.8 2.59995 17.8H31.2C32 17.8 32.5999 18.4001 32.5999 19.2001C32.5999 20.0001 31.9 20.6 31.2 20.6Z" fill="#2E39BF"/>
<path d="M38.8 14.2H10.3C9.50002 14.2 8.90002 13.6 8.90002 12.8C8.90002 12 9.60002 11.4 10.3 11.4H38.9C39.7 11.4 40.3 12 40.3 12.8C40.3 13.6 39.6 14.2 38.8 14.2Z" fill="#2E39BF"/>
<path d="M41.6 7.8H13C12.2 7.8 11.6 7.2 11.6 6.4C11.6 5.7 12.2 5 13 5H41.6C42.3 5 43 5.7 43 6.4C43 7.2 42.3 7.8 41.6 7.8Z" fill="#2E39BF"/>
<path d="M183.1 8.80005V29.1" stroke="#2E39BF" stroke-miterlimit="10"/>
<path d="M193.6 22.7V12.7H198.5C200.4 12.7 201.3 13.9 201.3 15.3C201.3 16.6 200.5 17.4 199.6 17.6C200.6 17.7 201.6 18.9 201.6 20C201.6 21.5 200.6 22.7 198.7 22.7C198.6 22.7 193.6 22.7 193.6 22.7ZM199.5 15.6C199.5 14.9 199 14.3 198.1 14.3H195.3V16.9H198.1C199.1 16.9 199.5 16.3 199.5 15.6ZM199.8 19.8C199.8 19.1 199.2 18.4 198.3 18.4H195.4V21.2H198.3C199.2 21.2 199.8 20.6 199.8 19.8Z" fill="#2E39BF"/>
<path d="M203.2 22.7V12.7H204.8V22.7H203.2Z" fill="#2E39BF"/>
<path d="M206.4 19.0999C206.4 16.9999 207.8 15.2999 210.1 15.2999C212.4 15.2999 213.8 16.9999 213.8 19.0999C213.8 21.1999 212.4 22.8999 210.1 22.8999C207.8 22.8999 206.4 21.1999 206.4 19.0999ZM212.2 19.0999C212.2 17.7999 211.5 16.6999 210.1 16.6999C208.8 16.6999 208 17.8999 208 19.0999C208 20.3999 208.7 21.4999 210.1 21.4999C211.5 21.4999 212.2 20.3999 212.2 19.0999Z" fill="#2E39BF"/>
<path d="M215.4 24.5999L216.1 23.3999C216.7 24.0999 217.5 24.2999 218.4 24.2999C219.4 24.2999 220.5 23.7999 220.5 22.2999V21.4999C219.9 22.1999 219.1 22.6999 218.2 22.6999C216.3 22.6999 214.9 21.3999 214.9 18.9999C214.9 16.6999 216.2 15.2999 218.2 15.2999C219.1 15.2999 219.9 15.5999 220.5 16.4999V15.5999H222.1V22.4999C222.1 25.0999 220.1 25.7999 218.4 25.7999C217.2 25.6999 216.3 25.3999 215.4 24.5999ZM220.6 20.3999V17.6999C220.3 17.0999 219.4 16.7999 218.7 16.7999C217.4 16.7999 216.6 17.6999 216.6 19.0999C216.6 20.4999 217.4 21.3999 218.7 21.3999C219.4 21.2999 220.3 20.9999 220.6 20.3999Z" fill="#2E39BF"/>
</svg>
